<?xml version="1.0" encoding="utf-8"?>
<!-- Generator: Adobe Illustrator 23.0.3, SVG Export Plug-In . SVG Version: 6.00 Build 0)  -->
<svg version="1.1" id="Layer_1" xmlns="http://www.w3.org/2000/svg" xmlns:xlink="http://www.w3.org/1999/xlink" x="0px" y="0px"
	 viewBox="0 0 2000 2000" style="enable-background:new 0 0 2000 2000;" xml:space="preserve">
<style type="text/css">
	.st0{fill:#1F70C1;}
</style>
<g>
	<g>
		<path class="st0" d="M199.78,1051.35V948.64h21.46c15.35,0,28.44,4.65,39.27,13.95c10.82,9.3,16.24,21.77,16.24,37.41
			s-5.39,28.11-16.16,37.41c-10.78,9.3-23.94,13.95-39.48,13.95H199.78z M254.57,1000c0-9.82-3.08-17.5-9.23-23.03
			c-6.15-5.53-13.95-8.39-23.39-8.58v63.23c9.44-0.19,17.24-3.03,23.39-8.51C251.49,1017.62,254.57,1009.92,254.57,1000z"/>
		<path class="st0" d="M291.76,1051.35l42.72-106.17l43.01,106.17h-22.07l-5.14-13.16h-31.06l-5.1,13.16H291.76z M343.4,1020.6
			l-8.71-22.3l-8.65,22.3H343.4z"/>
		<path class="st0" d="M452.25,1051.35l-27.61-45.35v45.35h-22.17V948.64h27.18c12.21,0,22.12,3.24,29.75,9.73
			c7.63,6.49,11.44,15.36,11.44,26.61c0,12.58-5.77,21.98-17.3,28.17l23.59,38.2H452.25z M429.65,968.39h-5.01v33.19h5.01
			c5.81,0,10.44-1.48,13.87-4.43c3.43-2.96,5.15-7.01,5.15-12.16c0-5.15-1.72-9.2-5.15-12.16
			C440.1,969.87,435.47,968.39,429.65,968.39z"/>
		<path class="st0" d="M599.31,944.36v107h-22.17v-50.07l-26.04,30.9l-26.04-30.9v50.07h-22.17v-107l48.21,57.36L599.31,944.36z"/>
		<path class="st0" d="M723.25,962.02c10.16,10.35,15.24,23.01,15.24,37.98c0,14.97-5.08,27.63-15.24,37.98
			c-10.15,10.35-23.15,15.52-38.98,15.52s-28.82-5.17-38.98-15.52c-10.16-10.35-15.24-23.01-15.24-37.98
			c0-14.97,5.08-27.63,15.24-37.98c10.15-10.35,23.15-15.52,38.98-15.52S713.1,951.67,723.25,962.02z M661.24,975.68
			c-6.01,6.29-9.01,14.4-9.01,24.32s3.01,18.02,9.01,24.32c6.01,6.29,13.68,9.44,23.03,9.44c9.34,0,17.03-3.15,23.03-9.44
			c6.01-6.29,9.01-14.4,9.01-24.32s-3-18.02-9.01-24.32c-6.01-6.29-13.69-9.44-23.03-9.44
			C674.93,966.24,667.25,969.39,661.24,975.68z"/>
		<path class="st0" d="M819.02,1051.35l-27.61-45.35v45.35h-22.17V948.64h27.18c12.21,0,22.12,3.24,29.75,9.73
			c7.63,6.49,11.44,15.36,11.44,26.61c0,12.58-5.77,21.98-17.3,28.17l23.59,38.2H819.02z M796.42,968.39h-5.01v33.19h5.01
			c5.81,0,10.44-1.48,13.87-4.43c3.43-2.96,5.15-7.01,5.15-12.16c0-5.15-1.72-9.2-5.15-12.16
			C806.87,969.87,802.24,968.39,796.42,968.39z"/>
		<path class="st0" d="M981.38,958.37c7.34,6.49,11.01,15.36,11.01,26.61c0,11.25-3.67,20.12-11.01,26.61
			c-7.35,6.49-16.93,9.73-28.75,9.73h-6.44v30.04h-22.17V948.64h28.61C964.45,948.64,974.04,951.89,981.38,958.37z M952.63,968.39
			h-6.44v33.19h6.44c5.72,0,10.08-1.45,13.09-4.36c3.01-2.91,4.51-6.98,4.51-12.23c0-5.24-1.5-9.32-4.51-12.23
			C962.71,969.84,958.35,968.39,952.63,968.39z"/>
		<path class="st0" d="M1002.41,1051.35l42.72-106.17l43.01,106.17h-22.07l-5.14-13.16h-31.06l-5.1,13.16H1002.41z M1054.05,1020.6
			l-8.71-22.3l-8.65,22.3H1054.05z"/>
		<path class="st0" d="M1162.91,1051.35l-27.61-45.35v45.35h-22.17V948.64h27.18c12.21,0,22.12,3.24,29.75,9.73
			c7.63,6.49,11.44,15.36,11.44,26.61c0,12.58-5.77,21.98-17.3,28.17l23.59,38.2H1162.91z M1140.31,968.39h-5.01v33.19h5.01
			c5.81,0,10.44-1.48,13.87-4.43c3.43-2.96,5.15-7.01,5.15-12.16c0-5.15-1.72-9.2-5.15-12.16
			C1150.75,969.87,1146.12,968.39,1140.31,968.39z"/>
		<path class="st0" d="M1202.82,968.39v-19.74h59.08v19.74h-18.45v82.97h-22.17v-82.97H1202.82z"/>
		<path class="st0" d="M1286.92,1051.35v-107l50.92,55.5v-51.21h22.17v107l-50.92-55.5v51.21H1286.92z"/>
		<path class="st0" d="M1394.35,1051.35V948.64h50.64v19.74h-28.47v20.03h26.32v19.74h-26.32v23.46h28.47v19.74H1394.35z"/>
		<path class="st0" d="M1525.53,1051.35l-27.61-45.35v45.35h-22.17V948.64h27.18c12.21,0,22.12,3.24,29.75,9.73
			c7.63,6.49,11.44,15.36,11.44,26.61c0,12.58-5.77,21.98-17.3,28.17l23.59,38.2H1525.53z M1502.92,968.39h-5.01v33.19h5.01
			c5.81,0,10.44-1.48,13.87-4.43c3.43-2.96,5.15-7.01,5.15-12.16c0-5.15-1.72-9.2-5.15-12.16
			C1513.37,969.87,1508.74,968.39,1502.92,968.39z"/>
		<path class="st0" d="M1604.63,1033.76c3.91,0,6.96-0.93,9.15-2.78c2.19-1.85,3.29-4.49,3.29-7.92c0-2.95-1.15-5.52-3.45-7.7
			c-2.3-2.19-5.15-4-8.56-5.45c-3.41-1.44-7.15-3.03-11.21-4.75c-4.07-1.72-7.82-3.63-11.25-5.73c-3.43-2.1-6.29-5.15-8.58-9.16
			c-2.29-4-3.43-8.73-3.43-14.16c0-8.58,2.98-15.66,8.94-21.24s13.81-8.37,23.53-8.37c4.39,0,8.58,0.57,12.59,1.72
			c4.01,1.14,7.3,2.53,9.87,4.15c2.58,1.62,4.86,3.24,6.87,4.86c2,1.62,3.43,3,4.29,4.15l1.43,1.71l-14.3,13.59
			c-0.67-0.76-1.62-1.72-2.86-2.86c-1.24-1.14-3.72-2.69-7.44-4.65c-3.72-1.95-7.3-2.93-10.73-2.93c-3.05,0-5.49,0.87-7.3,2.6
			c-1.81,1.73-2.72,4.08-2.72,7.05c0,2.67,1.12,5.02,3.36,7.05c2.24,2.03,5.03,3.63,8.39,4.82c3.36,1.19,7.06,2.73,11.12,4.62
			c4.06,1.89,7.84,3.9,11.35,6.04c3.5,2.13,6.43,5.26,8.76,9.38c2.34,4.13,3.51,8.97,3.51,14.53c0,9.44-3.17,17-9.51,22.67
			c-6.34,5.68-14.71,8.51-25.1,8.51c-4.87,0-9.51-0.6-13.95-1.79c-4.43-1.19-8.13-2.65-11.09-4.36c-2.96-1.72-5.56-3.45-7.8-5.22
			c-2.24-1.76-3.89-3.27-4.93-4.51l-1.43-1.72l15.16-15.16c0.29,0.38,0.64,0.86,1.07,1.43c0.43,0.57,1.43,1.6,3,3.08
			c1.57,1.48,3.24,2.79,5.01,3.93c1.76,1.14,4.01,2.19,6.72,3.15C1599.12,1033.28,1601.86,1033.76,1604.63,1033.76z"/>
	</g>
	<g>
		<path class="st0" d="M1660.16,1204.32h-85.36L1714.87,1000l-140.06-204.32h85.36L1800.22,1000L1660.16,1204.32z M1608.74,1186.44
			h42L1778.55,1000l-127.81-186.44h-42l127.8,186.44L1608.74,1186.44z"/>
		<polygon class="st0" points="1655.46,1195.38 1591.78,1195.38 1725.71,1000 1725.51,999.71 1789.19,999.71 1789.39,1000 		"/>
	</g>
</g>
</svg>
